<svg width="576" height="687" viewBox="0 0 576 687" fill="none" xmlns="http://www.w3.org/2000/svg">
<g clip-path="url(#clip0_219_76)">
<path d="M673.29 463.89L380.77 686.05L83.49 563.46L376.01 341.3L673.29 463.89Z" fill="url(#paint0_linear_219_76)"/>
<path d="M376.01 341.3L83.49 563.46L0 222.16L292.52 0L376.01 341.3Z" fill="url(#paint1_linear_219_76)"/>
<path d="M589.81 122.59L673.29 463.89L376.01 341.3L292.52 0L589.81 122.59Z" fill="url(#paint2_linear_219_76)"/>
<g opacity="0.4">
<path d="M292.52 0C296.61 14.07 300.34 28.23 304.27 42.34L315.45 84.82C322.85 113.15 329.77 141.61 336.95 169.99C343.7 198.48 350.67 226.92 357.2 255.47L366.89 298.32C369.92 312.65 373.14 326.94 376.01 341.31C371.92 327.24 368.18 313.08 364.26 298.97L353.07 256.49C345.68 228.15 338.75 199.71 331.58 171.32C324.85 142.82 317.85 114.39 311.34 85.84L301.65 42.99C298.61 28.65 295.39 14.37 292.52 0Z" fill="white"/>
</g>
<g opacity="0.4">
<path d="M673.29 463.89C660.67 459.36 648.18 454.5 635.61 449.81L598.16 435.2C573.21 425.41 548.45 415.15 523.59 405.15C498.9 394.73 474.12 384.54 449.51 373.92L412.64 357.88C400.43 352.35 388.14 346.99 376 341.3C388.63 345.83 401.12 350.69 413.68 355.37L451.13 369.98C476.07 379.79 500.84 390.02 525.69 400.04C550.38 410.47 575.17 420.65 599.76 431.28L636.63 447.32C648.86 452.85 661.15 458.21 673.29 463.89Z" fill="white"/>
</g>
<g opacity="0.4">
<path d="M83.49 563.46C95.3 553.71 107.33 544.24 119.24 534.62L155.34 506.24C179.44 487.36 203.84 468.88 228.08 450.19C252.59 431.85 276.95 413.32 301.6 395.16L338.63 368.01C351.1 359.12 363.45 350.08 376.02 341.32C364.21 351.08 352.19 360.55 340.28 370.17L304.18 398.56C280.07 417.42 255.68 435.92 231.43 454.61C206.91 472.94 182.56 491.49 157.91 509.63L120.88 536.79C108.4 545.66 96.05 554.7 83.49 563.46Z" fill="white"/>
</g>
</g>
<defs>
<linearGradient id="paint0_linear_219_76" x1="-172.617" y1="193.628" x2="405.286" y2="529.297" gradientUnits="userSpaceOnUse">
<stop stop-color="#BEC4E4"/>
<stop offset="1" stop-color="#5D5DA9"/>
</linearGradient>
<linearGradient id="paint1_linear_219_76" x1="29.8125" y1="39.1688" x2="320.647" y2="485.116" gradientUnits="userSpaceOnUse">
<stop stop-color="#BEC4E4"/>
<stop offset="1" stop-color="#5D5DA9"/>
</linearGradient>
<linearGradient id="paint2_linear_219_76" x1="230.21" y1="-135.616" x2="648.929" y2="473.43" gradientUnits="userSpaceOnUse">
<stop stop-color="#BEC4E4"/>
<stop offset="1" stop-color="#5D5DA9"/>
</linearGradient>
<clipPath id="clip0_219_76">
<rect width="673.29" height="686.05" fill="white"/>
</clipPath>
</defs>
</svg>
