<svg width="1138" height="1440" viewBox="0 0 1138 1440" fill="none" xmlns="http://www.w3.org/2000/svg">
<path d="M243.364 1090.51C242.789 1088.19 242.276 1085.79 241.783 1083.37C241.455 1081.81 241.127 1080.27 240.839 1078.64C240.388 1076.02 240.018 1073.28 239.649 1070.53C239.443 1068.99 239.197 1067.49 239.012 1065.91C238.684 1063.02 238.479 1059.98 238.273 1056.96C238.15 1055.34 237.986 1053.8 237.904 1052.13C237.719 1048.54 237.658 1044.8 237.617 1041.05C237.596 1039.83 237.534 1038.68 237.534 1037.45C237.534 1036.28 237.616 1035.01 237.637 1033.82C237.699 1029.69 237.76 1025.56 237.986 1021.25C238.068 1019.65 238.232 1017.97 238.355 1016.34C238.622 1012.17 238.91 1007.99 239.341 1003.65C239.525 1001.7 239.813 999.669 240.039 997.677C240.531 993.283 241.086 988.848 241.742 984.289C242.071 982.092 242.44 979.833 242.789 977.595C243.651 972.215 244.616 966.712 245.684 961.106C246.402 957.328 247.079 953.631 247.901 949.75C249.358 942.912 250.959 936.013 252.683 929.031C252.704 928.929 252.745 928.805 252.765 928.703C254.839 920.407 257.158 911.988 259.601 903.528C260.381 900.838 261.202 898.127 262.023 895.396C263.665 889.954 265.369 884.492 267.155 878.989C268.14 875.971 269.126 872.931 270.152 869.892C271.63 865.518 273.169 861.124 274.73 856.709C275.92 853.362 277.09 850.015 278.342 846.648C279.615 843.198 280.949 839.727 282.263 836.257C283.7 832.479 285.137 828.721 286.635 824.922C288.052 821.349 289.509 817.756 290.987 814.183C292.486 810.507 294.005 806.811 295.565 803.115C297.392 798.782 299.28 794.449 301.189 790.116C302.503 787.098 303.817 784.079 305.171 781.061C310.693 768.761 316.502 756.42 322.578 744.058C323.543 742.087 324.508 740.115 325.473 738.165C331.569 725.885 337.933 713.605 344.522 701.346C346.451 697.774 348.36 694.2 350.331 690.628C351.583 688.348 352.815 686.069 354.088 683.81C357.782 677.198 361.498 670.565 365.316 663.974C365.521 663.625 365.706 663.296 365.911 662.947C369.873 656.109 373.917 649.271 378.022 642.454C378.33 641.92 378.659 641.407 378.966 640.873C383.133 633.994 387.362 627.115 391.652 620.277C392.022 619.681 392.391 619.086 392.761 618.49C396.989 611.796 401.259 605.122 405.611 598.469C406.083 597.751 406.534 597.032 407.007 596.334C411.256 589.866 415.546 583.418 419.898 577.011C420.575 576.025 421.232 575.04 421.909 574.054C426.138 567.853 430.407 561.713 434.718 555.594C435.724 554.177 436.709 552.78 437.715 551.364C442.005 545.306 446.337 539.269 450.729 533.293C450.955 532.985 451.16 532.698 451.386 532.39C455.943 526.189 460.562 520.049 465.201 513.95C466.576 512.143 467.952 510.357 469.327 508.57C472.817 504.012 476.347 499.494 479.898 494.976C481.356 493.128 482.813 491.26 484.291 489.412C488.684 483.888 493.118 478.426 497.572 473.005C498.106 472.348 498.64 471.67 499.173 471.033C504.162 464.976 509.211 459 514.261 453.086C515.883 451.197 517.525 449.329 519.146 447.439C522.677 443.374 526.208 439.328 529.759 435.345C531.791 433.065 533.823 430.827 535.855 428.568C539.099 424.975 542.342 421.422 545.585 417.911C547.741 415.57 549.896 413.25 552.072 410.95C555.233 407.582 558.415 404.276 561.596 400.97C563.937 398.547 566.277 396.103 568.637 393.721C571.778 390.518 574.939 387.376 578.1 384.235C580.502 381.853 582.883 379.471 585.285 377.13C588.2 374.296 591.114 371.544 594.029 368.772C596.924 366.021 599.818 363.249 602.733 360.559C605.401 358.094 608.049 355.692 610.718 353.289C614.084 350.23 617.451 347.191 620.838 344.234C623.322 342.057 625.826 339.922 628.31 337.786C632.189 334.459 636.069 331.174 639.949 327.971C642.289 326.04 644.608 324.151 646.948 322.262C652.593 317.703 658.238 313.288 663.883 309.017C665.956 307.436 668.03 305.794 670.103 304.253C678.15 298.298 685.991 292.857 693.75 287.641C696.337 285.916 698.903 284.191 701.448 282.549C703.809 281.029 706.149 279.53 708.468 278.072C711.63 276.101 714.77 274.212 717.89 272.364C720.128 271.029 722.386 269.694 724.603 268.421C727.764 266.614 730.884 264.93 733.983 263.267C736.077 262.137 738.171 260.988 740.224 259.94C743.529 258.236 746.772 256.675 750.015 255.135C751.781 254.293 753.587 253.369 755.332 252.589C759.335 250.761 763.255 249.119 767.135 247.538C768.079 247.168 769.044 246.716 769.968 246.347C774.75 244.457 779.451 242.774 784.049 241.254C785.383 240.823 786.656 240.494 787.949 240.084C791.213 239.077 794.456 238.092 797.618 237.27C799.301 236.839 800.923 236.511 802.565 236.12C805.274 235.484 808.004 234.868 810.652 234.375C812.397 234.046 814.101 233.821 815.825 233.554C818.288 233.184 820.731 232.814 823.133 232.568C824.857 232.383 826.561 232.26 828.265 232.157C830.564 231.993 832.842 231.89 835.08 231.849C836.742 231.829 838.385 231.829 840.006 231.87C842.182 231.911 844.337 232.034 846.452 232.198C848.012 232.322 849.572 232.445 851.091 232.63C853.185 232.876 855.217 233.225 857.229 233.595C858.665 233.862 860.123 234.108 861.539 234.437C863.592 234.909 865.563 235.504 867.513 236.12C868.785 236.511 870.078 236.86 871.331 237.311C873.445 238.071 875.477 238.975 877.509 239.899C878.495 240.351 879.521 240.72 880.486 241.213C883.421 242.691 886.274 244.314 888.984 246.121L854.971 223.348C852.261 221.541 849.408 219.919 846.472 218.44C845.508 217.948 844.481 217.578 843.496 217.126C841.464 216.202 839.432 215.299 837.317 214.539C836.086 214.087 834.772 213.738 833.499 213.348C831.528 212.752 829.558 212.157 827.505 211.664C826.089 211.336 824.632 211.089 823.195 210.822C821.183 210.453 819.151 210.103 817.057 209.857C815.538 209.672 813.978 209.528 812.418 209.426C810.304 209.261 808.148 209.138 805.972 209.097C804.351 209.056 802.708 209.056 801.046 209.077C798.808 209.118 796.53 209.241 794.231 209.385C792.527 209.508 790.844 209.631 789.099 209.795C786.718 210.042 784.255 210.391 781.812 210.781C780.088 211.048 778.384 211.295 776.618 211.603C773.991 212.095 771.281 212.711 768.572 213.348C766.909 213.738 765.287 214.067 763.604 214.498C760.423 215.319 757.179 216.305 753.915 217.311C752.622 217.722 751.35 218.03 750.036 218.481C745.417 220.001 740.716 221.685 735.934 223.574C735.01 223.944 734.045 224.375 733.121 224.765C729.221 226.346 725.301 227.989 721.298 229.816C719.512 230.617 717.685 231.541 715.899 232.404C712.676 233.944 709.454 235.484 706.169 237.168C704.096 238.235 701.982 239.406 699.888 240.515C696.788 242.178 693.689 243.862 690.548 245.648C688.311 246.921 686.032 248.277 683.774 249.611C680.674 251.439 677.575 253.328 674.414 255.279C672.074 256.737 669.713 258.256 667.332 259.797C665.731 260.823 664.191 261.768 662.57 262.815C661.625 263.452 660.62 264.211 659.675 264.848C651.916 270.064 644.054 275.505 636.007 281.46C635.104 282.138 634.201 282.816 633.277 283.493C632.128 284.356 630.978 285.321 629.829 286.183C624.163 290.475 618.498 294.91 612.832 299.469C611.765 300.331 610.677 301.112 609.589 301.995C608.337 303.001 607.105 304.11 605.874 305.136C601.994 308.34 598.094 311.625 594.214 314.952C592.654 316.286 591.094 317.539 589.534 318.894C588.59 319.716 587.645 320.599 586.722 321.42C583.335 324.398 579.948 327.437 576.581 330.517C574.734 332.201 572.866 333.802 571.018 335.486C570.238 336.205 569.458 336.985 568.678 337.704C565.743 340.414 562.828 343.207 559.893 346C557.82 347.971 555.746 349.881 553.673 351.873C552.852 352.673 552.031 353.515 551.21 354.316C548.808 356.657 546.406 359.06 543.984 361.442C541.891 363.536 539.776 365.569 537.682 367.684C536.636 368.752 535.589 369.84 534.542 370.908C532.181 373.31 529.82 375.754 527.48 378.197C525.674 380.066 523.868 381.894 522.061 383.783C520.706 385.22 519.352 386.699 517.997 388.136C515.821 390.436 513.666 392.756 511.51 395.097C510.094 396.617 508.657 398.116 507.261 399.656C505.434 401.648 503.628 403.722 501.801 405.734C499.748 408.013 497.695 410.293 495.643 412.593C494.698 413.66 493.734 414.687 492.79 415.755C490.224 418.65 487.699 421.628 485.153 424.564C483.491 426.474 481.828 428.363 480.186 430.293C479.734 430.827 479.262 431.34 478.811 431.874C474.274 437.172 469.779 442.552 465.304 447.973C465.222 448.076 465.139 448.179 465.057 448.281C464.585 448.856 464.113 449.452 463.62 450.047C459.823 454.647 456.046 459.288 452.31 463.969C451.591 464.873 450.873 465.797 450.155 466.701C448.718 468.508 447.281 470.356 445.844 472.163C443.894 474.627 441.944 477.07 440.014 479.555C438.413 481.629 436.812 483.724 435.211 485.818C433.835 487.605 432.46 489.391 431.105 491.177C430.243 492.327 429.34 493.457 428.478 494.607C424.804 499.473 421.15 504.361 417.537 509.289C417.455 509.391 417.393 509.494 417.311 509.597C417.065 509.925 416.819 510.274 416.572 510.603C413.637 514.607 410.722 518.611 407.828 522.657C406.391 524.648 404.995 526.661 403.579 528.653C402.614 530.028 401.628 531.404 400.664 532.78C399.863 533.909 399.062 535.018 398.262 536.168C395.429 540.234 392.596 544.3 389.805 548.386C389.148 549.351 388.491 550.316 387.834 551.302C387.157 552.308 386.479 553.294 385.802 554.3C384.468 556.271 383.113 558.243 381.799 560.214C379.151 564.177 376.503 568.14 373.896 572.124C373.568 572.637 373.219 573.151 372.89 573.664C372.459 574.3 372.049 574.958 371.638 575.594C369.955 578.161 368.272 580.728 366.609 583.315C364.228 586.991 361.888 590.687 359.548 594.404C359.26 594.855 358.973 595.307 358.706 595.759C358.337 596.354 357.967 596.95 357.598 597.525C355.935 600.194 354.252 602.843 352.61 605.513C350.187 609.435 347.786 613.357 345.404 617.279C345.22 617.587 345.056 617.874 344.871 618.182C344.604 618.634 344.337 619.065 344.07 619.517C342.079 622.823 340.088 626.129 338.138 629.456C336.003 633.07 333.889 636.684 331.795 640.298C331.631 640.585 331.467 640.873 331.302 641.16C331.2 641.324 331.097 641.489 331.015 641.653C327.915 647.033 324.836 652.413 321.819 657.814C321.203 658.902 320.628 659.99 320.033 661.079C318.801 663.317 317.57 665.535 316.359 667.773C314.901 670.442 313.403 673.112 311.945 675.781C311.432 676.726 310.981 677.67 310.488 678.615C303.899 690.853 297.556 703.112 291.459 715.371C290.474 717.363 289.509 719.335 288.524 721.326C282.468 733.667 276.659 745.988 271.158 758.268C270.85 758.966 270.48 759.685 270.173 760.383C269.126 762.744 268.161 765.085 267.114 767.446C265.226 771.738 263.358 776.03 261.551 780.301C260.997 781.615 260.381 782.95 259.847 784.264C258.842 786.687 257.897 789.09 256.912 791.513C255.475 795.045 254.018 798.576 252.622 802.108C252.109 803.423 251.534 804.757 251.021 806.072C250.035 808.577 249.153 811.062 248.188 813.546C246.874 816.996 245.561 820.425 244.288 823.854C243.836 825.066 243.364 826.277 242.912 827.489C242.132 829.665 241.435 831.801 240.655 833.957C239.094 838.352 237.555 842.746 236.077 847.12C235.605 848.516 235.071 849.953 234.599 851.35C234.045 852.992 233.593 854.594 233.059 856.237C231.274 861.72 229.57 867.182 227.948 872.603C227.414 874.348 226.819 876.114 226.306 877.86C226.019 878.825 225.793 879.79 225.526 880.755C223.104 889.174 220.784 897.511 218.732 905.766C218.69 905.909 218.649 906.053 218.608 906.197C218.608 906.218 218.588 906.238 218.588 906.279C216.864 913.24 215.262 920.14 213.805 926.957C213.292 929.36 212.799 931.742 212.327 934.124C212.04 935.561 211.875 936.875 211.588 938.292C210.521 943.898 209.556 949.381 208.694 954.781C208.468 956.177 208.16 957.656 207.955 959.032C207.832 959.894 207.77 960.675 207.647 961.537C206.99 966.055 206.456 970.449 205.964 974.823C205.779 976.424 205.512 978.129 205.348 979.71C205.307 980.121 205.286 980.49 205.245 980.901C204.814 985.213 204.527 989.382 204.26 993.529C204.157 995.008 203.993 996.569 203.911 998.027C203.911 998.191 203.911 998.335 203.89 998.478C203.665 1002.67 203.603 1006.69 203.541 1010.7C203.521 1011.95 203.439 1013.28 203.439 1014.54C203.439 1014.58 203.439 1014.64 203.439 1014.68C203.439 1015.79 203.5 1016.82 203.521 1017.9C203.562 1021.62 203.603 1025.34 203.788 1028.91C203.788 1029.05 203.808 1029.2 203.829 1029.36C203.911 1030.96 204.075 1032.46 204.198 1034.02C204.404 1036.8 204.547 1039.63 204.835 1042.3C204.855 1042.59 204.917 1042.83 204.937 1043.12C205.101 1044.68 205.348 1046.16 205.553 1047.68C205.861 1049.96 206.107 1052.28 206.477 1054.48C206.559 1054.95 206.662 1055.38 206.744 1055.83C207.031 1057.45 207.38 1058.99 207.688 1060.57C208.037 1062.3 208.345 1064.11 208.735 1065.79C208.899 1066.45 209.084 1067.04 209.248 1067.7C209.638 1069.24 210.069 1070.74 210.48 1072.24C210.849 1073.55 211.157 1074.95 211.568 1076.22C211.834 1077.08 212.163 1077.84 212.43 1078.69C212.922 1080.16 213.435 1081.6 213.949 1083.02C214.298 1083.98 214.606 1085.01 214.975 1085.95C215.386 1086.98 215.858 1087.91 216.268 1088.89C216.843 1090.25 217.438 1091.6 218.054 1092.9C218.362 1093.57 218.649 1094.29 218.978 1094.97C219.553 1096.12 220.21 1097.15 220.805 1098.25C221.482 1099.51 222.139 1100.76 222.858 1101.97C223.124 1102.42 223.35 1102.92 223.637 1103.37C224.397 1104.6 225.259 1105.73 226.06 1106.9C226.799 1107.99 227.517 1109.12 228.297 1110.16C228.502 1110.45 228.687 1110.76 228.892 1111.05C229.816 1112.26 230.822 1113.33 231.787 1114.46C232.69 1115.52 233.552 1116.61 234.476 1117.62C234.661 1117.8 234.804 1118.03 234.989 1118.21C236.036 1119.32 237.206 1120.29 238.294 1121.34C239.32 1122.3 240.306 1123.33 241.373 1124.23C241.517 1124.35 241.66 1124.52 241.825 1124.64C243.98 1126.43 246.197 1128.11 248.516 1129.65L282.53 1152.42C280.046 1150.76 277.685 1148.93 275.386 1146.98C274.298 1146.06 273.313 1145.03 272.266 1144.07C270.994 1142.86 269.7 1141.71 268.489 1140.41C267.545 1139.41 266.662 1138.28 265.759 1137.21C264.589 1135.81 263.378 1134.44 262.27 1132.94C261.49 1131.89 260.771 1130.76 260.032 1129.67C258.944 1128.07 257.856 1126.45 256.83 1124.74C256.111 1123.53 255.455 1122.28 254.777 1121.03C253.833 1119.28 252.909 1117.52 252.047 1115.67C251.431 1114.37 250.857 1113.02 250.282 1111.68C249.461 1109.77 248.681 1107.8 247.942 1105.79C247.428 1104.37 246.915 1102.94 246.423 1101.46C245.725 1099.36 245.088 1097.19 244.473 1094.99C244.165 1093.55 243.754 1092.05 243.364 1090.51Z" fill="url(#paint0_linear_222_96)" fill-opacity="0.5"/>
<path d="M1137.47 164.086C1137.47 164.004 1137.47 163.942 1137.47 163.881C1137.47 161.992 1137.36 160.246 1137.34 158.378C1137.28 152.607 1137.22 146.837 1136.93 141.314C1136.91 141.088 1136.89 140.862 1136.87 140.636C1136.73 138.069 1136.46 135.646 1136.27 133.12C1135.97 128.747 1135.72 124.311 1135.27 120.102C1135.23 119.67 1135.15 119.26 1135.08 118.828C1134.82 116.364 1134.43 114.044 1134.1 111.641C1133.63 108.027 1133.22 104.331 1132.62 100.84C1132.5 100.101 1132.31 99.4235 1132.19 98.6843C1131.74 96.138 1131.2 93.6945 1130.69 91.2099C1130.14 88.4583 1129.66 85.604 1129.03 82.9345C1128.78 81.8872 1128.45 80.9427 1128.21 79.916C1127.59 77.4519 1126.91 75.0904 1126.26 72.7084C1125.66 70.6139 1125.17 68.4373 1124.55 66.4044C1124.14 65.0491 1123.61 63.817 1123.18 62.5028C1122.4 60.1824 1121.6 57.9032 1120.76 55.6444C1120.2 54.1249 1119.71 52.4821 1119.11 51.0036C1118.48 49.3814 1117.72 47.9235 1117.04 46.3628C1116.12 44.2273 1115.19 42.0916 1114.23 40.0177C1113.74 38.9499 1113.28 37.8 1112.77 36.7528C1111.87 34.9252 1110.82 33.2825 1109.88 31.5371C1108.81 29.5658 1107.76 27.5739 1106.63 25.6642C1106.2 24.9455 1105.83 24.1447 1105.4 23.426C1104.19 21.4547 1102.84 19.6888 1101.54 17.7996C1100.37 16.0747 1099.24 14.2882 1098.01 12.6455C1097.68 12.1937 1097.4 11.6804 1097.05 11.2492C1095.59 9.33948 1093.99 7.65565 1092.45 5.84863C1091.03 4.16482 1089.66 2.41938 1088.18 0.817696C1087.89 0.530216 1087.67 0.181087 1087.38 -0.12693C1085.72 -1.87235 1083.91 -3.37136 1082.16 -5.01411C1080.52 -6.55419 1078.96 -8.1764 1077.26 -9.63434C1077.01 -9.83968 1076.81 -10.0861 1076.56 -10.2915C1073.15 -13.1252 1069.62 -15.7741 1065.95 -18.2382L1031.94 -41.0107C1035.86 -38.3823 1039.61 -35.487 1043.25 -32.4068C1044.95 -30.9694 1046.53 -29.3473 1048.15 -27.8072C1050.18 -25.8975 1052.24 -24.0288 1054.15 -21.9754C1055.64 -20.3737 1057.02 -18.6078 1058.44 -16.924C1060.3 -14.7063 1062.19 -12.5091 1063.96 -10.1477C1065.19 -8.48441 1066.34 -6.69789 1067.51 -4.973C1069.23 -2.42674 1070.96 0.140041 1072.58 2.85057C1073.71 4.76027 1074.78 6.75209 1075.84 8.74392C1077.34 11.4955 1078.8 14.3087 1080.17 17.2246C1081.16 19.2986 1082.08 21.4342 1083.01 23.5698C1084.3 26.5883 1085.53 29.6889 1086.7 32.8512C1087.54 35.11 1088.34 37.3894 1089.12 39.7303C1090.21 43.0363 1091.24 46.4655 1092.2 49.9358C1092.88 52.3178 1093.56 54.6793 1094.15 57.1434C1095.06 60.819 1095.86 64.6179 1096.64 68.4578C1097.15 70.9425 1097.68 73.386 1098.14 75.9528C1098.87 80.1212 1099.45 84.4746 1100.02 88.8279C1100.35 91.2509 1100.74 93.6124 1101.01 96.0971C1101.52 100.717 1101.85 105.522 1102.2 110.327C1102.38 112.874 1102.65 115.297 1102.79 117.884C1103.1 123.654 1103.18 129.63 1103.25 135.667C1103.27 137.515 1103.37 139.281 1103.37 141.149C1103.37 143.059 1103.25 145.113 1103.21 147.043C1103.12 153.532 1103 160.041 1102.65 166.797C1102.53 169.302 1102.24 171.971 1102.08 174.538C1101.65 181.15 1101.17 187.783 1100.5 194.662C1100.19 197.763 1099.74 201.007 1099.39 204.169C1098.59 211.11 1097.75 218.133 1096.7 225.34C1096.19 228.831 1095.59 232.404 1095.04 235.936C1093.68 244.478 1092.14 253.205 1090.44 262.097C1089.29 268.052 1088.24 273.924 1086.93 280.023C1084.63 290.845 1082.08 301.769 1079.35 312.796C1079.29 313.042 1079.21 313.289 1079.15 313.535C1075.88 326.595 1072.23 339.84 1068.37 353.187C1067.14 357.458 1065.83 361.77 1064.53 366.083C1061.93 374.707 1059.24 383.372 1056.4 392.079C1054.86 396.843 1053.3 401.607 1051.68 406.391C1049.34 413.353 1046.88 420.334 1044.4 427.357C1042.51 432.634 1040.66 437.932 1038.71 443.23C1036.7 448.692 1034.6 454.154 1032.51 459.637C1030.21 465.633 1027.91 471.65 1025.53 477.687C1023.31 483.292 1021.01 488.94 1018.7 494.566C1016.29 500.418 1013.89 506.291 1011.41 512.164C1008.53 518.981 1005.56 525.819 1002.56 532.657C1000.12 538.242 997.696 543.807 995.171 549.413C992.872 554.547 990.491 559.68 988.11 564.814C985.154 571.2 982.198 577.607 979.16 583.993C976.676 589.209 974.151 594.424 971.606 599.64C968.527 605.985 965.407 612.351 962.225 618.696C959.597 623.953 956.949 629.189 954.26 634.446C951.017 640.791 947.753 647.136 944.428 653.461C941.677 658.697 938.906 663.954 936.115 669.19C932.338 676.233 928.54 683.276 924.66 690.32C922.69 693.893 920.74 697.486 918.748 701.059C912.898 711.552 906.986 722.025 900.951 732.497C900.664 733.011 900.356 733.503 900.069 734.017C893.767 744.879 887.362 755.722 880.855 766.523C880.363 767.365 879.87 768.186 879.357 769.028C872.788 779.911 866.076 790.774 859.302 801.575C858.707 802.54 858.111 803.505 857.495 804.47C850.804 815.127 843.988 825.723 837.091 836.278C836.393 837.346 835.716 838.413 835.018 839.481C828.306 849.728 821.511 859.913 814.635 870.036C813.526 871.659 812.438 873.281 811.33 874.903C804.638 884.718 797.885 894.452 791.049 904.144C789.51 906.341 787.949 908.518 786.41 910.694C779.595 920.284 772.739 929.832 765.801 939.299C765.431 939.812 765.062 940.325 764.692 940.839C757.467 950.675 750.159 960.408 742.81 970.08C740.675 972.872 738.541 975.665 736.406 978.437C730.822 985.727 725.198 992.934 719.533 1000.12C717.233 1003.04 714.955 1005.95 712.656 1008.85C705.594 1017.72 698.492 1026.49 691.349 1035.19C690.61 1036.1 689.871 1037.04 689.111 1037.95C681.188 1047.56 673.203 1057.02 665.176 1066.41C662.59 1069.42 659.983 1072.4 657.376 1075.4C651.834 1081.81 646.271 1088.17 640.688 1094.46C637.465 1098.09 634.221 1101.66 630.978 1105.26C625.846 1110.92 620.715 1116.57 615.562 1122.14C612.155 1125.83 608.727 1129.49 605.299 1133.14C600.311 1138.46 595.282 1143.7 590.273 1148.91C586.558 1152.77 582.822 1156.63 579.086 1160.45C574.118 1165.5 569.15 1170.47 564.162 1175.42C560.344 1179.22 556.526 1183.02 552.708 1186.76C548.131 1191.21 543.512 1195.57 538.914 1199.94C534.316 1204.31 529.718 1208.71 525.099 1212.98C520.891 1216.88 516.663 1220.68 512.434 1224.5C507.097 1229.33 501.78 1234.13 496.443 1238.81C492.482 1242.28 488.52 1245.67 484.558 1249.06C478.421 1254.32 472.283 1259.51 466.145 1264.58C462.45 1267.64 458.756 1270.64 455.061 1273.62C446.111 1280.83 437.181 1287.83 428.232 1294.6C424.947 1297.09 421.683 1299.72 418.399 1302.14C409.798 1308.51 401.341 1314.52 392.945 1320.35C390.441 1322.08 387.978 1323.74 385.515 1325.43C379.89 1329.25 374.307 1332.92 368.764 1336.51C365.028 1338.94 361.313 1341.32 357.618 1343.62C352.61 1346.74 347.642 1349.74 342.715 1352.65C339.164 1354.77 335.593 1356.88 332.082 1358.9C327.053 1361.75 322.106 1364.44 317.18 1367.09C313.895 1368.86 310.57 1370.68 307.327 1372.35C302.113 1375.04 297.001 1377.48 291.89 1379.9C289.037 1381.26 286.143 1382.72 283.33 1384.01C277.029 1386.89 270.85 1389.47 264.733 1391.96C263.234 1392.57 261.674 1393.29 260.176 1393.89C252.601 1396.87 245.15 1399.56 237.863 1401.96C235.769 1402.64 233.778 1403.17 231.705 1403.81C226.532 1405.41 221.38 1406.97 216.371 1408.26C213.702 1408.96 211.136 1409.47 208.509 1410.09C204.198 1411.1 199.908 1412.08 195.721 1412.84C192.949 1413.35 190.26 1413.72 187.551 1414.16C183.651 1414.75 179.75 1415.33 175.953 1415.72C173.223 1416 170.534 1416.19 167.865 1416.37C164.211 1416.62 160.599 1416.8 157.068 1416.89C154.44 1416.93 151.854 1416.93 149.268 1416.87C145.819 1416.78 142.412 1416.62 139.066 1416.35C136.582 1416.17 134.119 1415.94 131.696 1415.65C128.371 1415.24 125.148 1414.71 121.946 1414.11C119.667 1413.68 117.368 1413.29 115.152 1412.78C111.908 1412.02 108.768 1411.07 105.647 1410.11C103.636 1409.49 101.583 1408.94 99.633 1408.24C96.2871 1407.03 93.0643 1405.61 89.8826 1404.16C88.302 1403.44 86.6804 1402.84 85.1408 1402.06C80.5017 1399.72 75.9857 1397.15 71.6956 1394.28L105.709 1417.05C109.999 1419.93 114.495 1422.49 119.154 1424.83C120.694 1425.61 122.336 1426.21 123.896 1426.93C127.098 1428.39 130.301 1429.8 133.646 1431.01C135.617 1431.71 137.67 1432.27 139.681 1432.88C142.802 1433.85 145.942 1434.79 149.186 1435.55C151.402 1436.07 153.702 1436.46 155.98 1436.89C159.182 1437.48 162.405 1438.04 165.73 1438.43C168.153 1438.71 170.616 1438.94 173.1 1439.12C176.446 1439.39 179.833 1439.56 183.302 1439.64C185.868 1439.7 188.474 1439.7 191.102 1439.66C194.653 1439.6 198.266 1439.41 201.899 1439.17C204.568 1438.98 207.257 1438.8 209.987 1438.51C213.784 1438.1 217.664 1437.54 221.585 1436.95C224.294 1436.54 227.004 1436.15 229.755 1435.63C233.942 1434.85 238.232 1433.87 242.543 1432.86C245.17 1432.25 247.736 1431.73 250.384 1431.03C255.414 1429.72 260.545 1428.16 265.718 1426.56C267.791 1425.92 269.782 1425.41 271.876 1424.71C279.184 1422.31 286.615 1419.64 294.21 1416.64C295.688 1416.06 297.207 1415.35 298.705 1414.75C304.863 1412.25 311.063 1409.66 317.385 1406.76C320.197 1405.49 323.071 1404.03 325.924 1402.68C331.036 1400.23 336.147 1397.79 341.381 1395.1C344.625 1393.44 347.95 1391.61 351.234 1389.84C356.161 1387.19 361.108 1384.52 366.137 1381.65C369.647 1379.64 373.219 1377.52 376.77 1375.41C381.697 1372.49 386.664 1369.49 391.673 1366.37C395.368 1364.07 399.083 1361.69 402.819 1359.27C405.344 1357.62 407.828 1356.15 410.373 1354.44C413.39 1352.45 416.49 1350.27 419.549 1348.2C422.032 1346.52 424.516 1344.83 427.02 1343.11C435.416 1337.27 443.873 1331.28 452.474 1324.91C453.911 1323.85 455.348 1322.78 456.785 1321.69C458.612 1320.31 460.439 1318.79 462.266 1317.4C471.236 1310.6 480.186 1303.6 489.156 1296.37C490.88 1294.99 492.584 1293.74 494.309 1292.35C496.279 1290.72 498.27 1288.98 500.241 1287.34C506.378 1282.26 512.496 1277.09 518.613 1271.83C521.096 1269.7 523.58 1267.72 526.043 1265.57C527.542 1264.28 529.02 1262.88 530.518 1261.56C535.855 1256.88 541.172 1252.08 546.489 1247.27C549.465 1244.58 552.441 1242.02 555.397 1239.31C556.65 1238.16 557.902 1236.92 559.174 1235.75C563.793 1231.48 568.391 1227.09 572.989 1222.71C576.294 1219.57 579.599 1216.53 582.904 1213.35C584.197 1212.1 585.49 1210.78 586.783 1209.51C590.622 1205.77 594.419 1201.97 598.237 1198.17C601.563 1194.87 604.909 1191.67 608.214 1188.32C609.876 1186.66 611.518 1184.91 613.161 1183.23C616.897 1179.43 620.591 1175.59 624.307 1171.73C627.181 1168.75 630.055 1165.85 632.928 1162.84C635.104 1160.56 637.239 1158.19 639.394 1155.89C642.802 1152.28 646.189 1148.63 649.576 1144.97C651.834 1142.53 654.112 1140.15 656.37 1137.68C659.285 1134.5 662.18 1131.21 665.074 1127.99C668.297 1124.44 671.499 1120.88 674.701 1117.27C676.22 1115.57 677.76 1113.9 679.279 1112.18C683.363 1107.56 687.387 1102.83 691.451 1098.15C694.038 1095.15 696.645 1092.2 699.231 1089.18C699.95 1088.34 700.688 1087.52 701.407 1086.65C708.571 1078.25 715.694 1069.75 722.796 1061.17C722.919 1061.03 723.042 1060.88 723.166 1060.72C723.966 1059.75 724.746 1058.77 725.526 1057.8C731.5 1050.53 737.453 1043.24 743.365 1035.85C744.493 1034.45 745.602 1033.02 746.71 1031.6C749.03 1028.71 751.308 1025.77 753.608 1022.83C756.666 1018.95 759.766 1015.09 762.804 1011.17C765.349 1007.88 767.874 1004.56 770.399 1001.25C772.554 998.437 774.73 995.624 776.885 992.79C778.281 990.963 779.677 989.177 781.052 987.349C786.862 979.649 792.65 971.887 798.377 964.083C798.5 963.919 798.624 963.734 798.747 963.57C799.096 963.098 799.424 962.626 799.773 962.153C804.453 955.767 809.113 949.36 813.731 942.913C815.989 939.75 818.227 936.568 820.464 933.405C822.004 931.249 823.543 929.073 825.062 926.916C826.335 925.13 827.608 923.343 828.86 921.557C833.356 915.13 837.83 908.682 842.264 902.214C843.311 900.694 844.337 899.133 845.384 897.614C846.452 896.033 847.54 894.452 848.607 892.871C850.722 889.749 852.856 886.628 854.971 883.507C859.179 877.244 863.346 870.96 867.472 864.656C868.005 863.856 868.518 863.034 869.052 862.213C869.73 861.186 870.407 860.139 871.084 859.112C873.732 855.046 876.38 851.001 879.008 846.915C882.764 841.083 886.5 835.231 890.195 829.378C890.647 828.66 891.078 827.961 891.529 827.243C892.125 826.278 892.72 825.312 893.336 824.368C895.963 820.179 898.611 815.969 901.218 811.76C905.057 805.559 908.854 799.357 912.611 793.135C912.878 792.683 913.144 792.232 913.411 791.78C913.883 791 914.355 790.219 914.828 789.439C917.948 784.264 921.068 779.069 924.126 773.874C927.493 768.165 930.839 762.457 934.144 756.748C934.431 756.276 934.698 755.783 934.985 755.311C935.129 755.065 935.293 754.798 935.437 754.551C940.363 746.029 945.208 737.508 949.991 728.965C950.955 727.24 951.879 725.516 952.823 723.811C954.794 720.279 956.724 716.727 958.674 713.195C960.993 708.985 963.354 704.776 965.632 700.546C967.172 697.712 968.629 694.858 970.148 692.024C972.961 686.767 975.732 681.531 978.482 676.274C981.808 669.929 985.092 663.584 988.335 657.218C991.004 651.982 993.672 646.746 996.279 641.51C999.461 635.144 1002.56 628.799 1005.66 622.454C1008.21 617.238 1010.73 612.022 1013.21 606.807C1016.25 600.4 1019.23 594.014 1022.16 587.607C1024.55 582.473 1026.93 577.319 1029.23 572.186C1030.07 570.317 1030.97 568.448 1031.79 566.58C1033.45 562.863 1034.97 559.187 1036.57 555.491C1039.57 548.653 1042.55 541.795 1045.44 534.977C1046.3 532.904 1047.27 530.829 1048.13 528.776C1049.73 524.977 1051.19 521.199 1052.73 517.4C1055.05 511.753 1057.35 506.127 1059.56 500.5C1060.39 498.426 1061.29 496.332 1062.09 494.258C1063.63 490.295 1065.05 486.373 1066.56 482.43C1068.64 476.968 1070.73 471.526 1072.74 466.085C1073.44 464.175 1074.22 462.245 1074.92 460.335C1076.17 456.906 1077.26 453.538 1078.47 450.13C1080.95 443.148 1083.4 436.166 1085.74 429.226C1086.48 427.028 1087.32 424.79 1088.06 422.573C1088.92 419.985 1089.64 417.439 1090.48 414.852C1093.31 406.166 1096 397.521 1098.59 388.917C1099.43 386.145 1100.39 383.331 1101.19 380.58C1101.65 379.04 1101.99 377.52 1102.45 375.98C1106.33 362.592 1109.98 349.285 1113.26 336.164C1113.3 336 1113.35 335.856 1113.39 335.692C1113.39 335.671 1113.41 335.63 1113.41 335.61C1116.16 324.583 1118.68 313.638 1121 302.816C1121.82 298.997 1122.6 295.218 1123.34 291.481C1123.79 289.222 1124.06 287.128 1124.49 284.89C1126.2 275.998 1127.74 267.292 1129.09 258.729C1129.44 256.552 1129.93 254.211 1130.26 252.035C1130.47 250.679 1130.57 249.447 1130.75 248.113C1131.8 240.926 1132.64 233.944 1133.42 227.003C1133.71 224.478 1134.14 221.808 1134.41 219.303C1134.47 218.646 1134.49 218.05 1134.55 217.414C1135.23 210.576 1135.68 203.943 1136.11 197.372C1136.25 195.052 1136.54 192.588 1136.66 190.309C1136.69 190.062 1136.66 189.836 1136.69 189.59C1137.03 182.834 1137.16 176.325 1137.24 169.836C1137.32 167.926 1137.44 165.934 1137.47 164.086Z" fill="url(#paint1_linear_222_96)" fill-opacity="0.5"/>
<path d="M685.231 51.0857C980.289 -167.564 1160.54 -64.8716 1087.01 280.003C1013.48 624.877 713.538 1083.41 418.481 1302.06C123.424 1520.71 -56.825 1418.02 16.7033 1073.14C90.2521 728.267 390.174 269.735 685.231 51.0857ZM467.644 1071.5C653.969 933.426 843.311 643.933 889.764 426.166C936.196 208.379 822.414 143.47 636.09 281.543C449.765 419.616 260.319 709.232 213.887 927.019C167.455 1144.81 281.319 1209.57 467.644 1071.5Z" fill="url(#paint2_linear_222_96)" fill-opacity="0.5"/>
<mask id="mask0_222_96" style="mask-type:luminance" maskUnits="userSpaceOnUse" x="0" y="-64" width="1104" height="1481">
<path d="M685.231 51.0857C390.174 269.735 90.2521 728.267 16.7033 1073.14C-56.825 1418.02 123.424 1520.71 418.481 1302.06C713.538 1083.41 1013.46 624.877 1087.01 280.003C1160.54 -64.8716 980.289 -167.564 685.231 51.0857ZM889.764 426.166C843.332 643.953 653.969 933.426 467.644 1071.5C281.319 1209.57 167.455 1144.79 213.887 927.019C260.319 709.232 449.765 419.636 636.09 281.543C822.414 143.47 936.196 208.399 889.764 426.166Z" fill="white"/>
</mask>
<g mask="url(#mask0_222_96)">
<g opacity="0.11">
<path d="M58.4349 485.182L-1293.93 2545.82L-1276.55 2555.49L75.7598 494.833L58.4349 485.182Z" fill="white" fill-opacity="0.5"/>
<path d="M203.583 379.697L-1148.79 2440.34L-1131.48 2450.07L220.907 389.327L203.583 379.697Z" fill="white" fill-opacity="0.5"/>
<path d="M348.73 274.212L-1003.64 2334.85L-986.335 2344.57L366.055 283.843L348.73 274.212Z" fill="white" fill-opacity="0.5"/>
<path d="M493.877 168.707L-858.492 2229.35L-841.188 2239.08L511.202 178.358L493.877 168.707Z" fill="white" fill-opacity="0.5"/>
<path d="M638.943 63.283L-713.427 2123.92L-696.04 2133.6L656.35 72.8725L638.943 63.283Z" fill="white" fill-opacity="0.5"/>
<path d="M784.09 -42.2224L-568.28 2018.42L-550.975 2028.15L801.415 -32.5712L784.09 -42.2224Z" fill="white" fill-opacity="0.5"/>
<path d="M929.238 -147.707L-423.132 1912.93L-405.828 1922.67L946.563 -138.056L929.238 -147.707Z" fill="white" fill-opacity="0.5"/>
<path d="M1074.39 -253.192L-277.984 1807.45L-260.68 1817.16L1091.71 -243.562L1074.39 -253.192Z" fill="white" fill-opacity="0.5"/>
<path d="M1219.45 -358.636L-132.837 1701.96L-115.533 1711.68L1236.86 -349.046L1219.45 -358.636Z" fill="white" fill-opacity="0.5"/>
<path d="M1364.6 -464.121L12.2284 1596.52L29.615 1606.19L1382.01 -454.531L1364.6 -464.121Z" fill="white" fill-opacity="0.5"/>
<path d="M1509.75 -569.626L157.376 1491.04L174.68 1500.75L1527.07 -559.975L1509.75 -569.626Z" fill="white" fill-opacity="0.5"/>
<path d="M1654.89 -675.111L302.523 1385.53L319.828 1395.26L1672.22 -665.46L1654.89 -675.111Z" fill="white" fill-opacity="0.5"/>
<path d="M1800.04 -780.596L447.671 1280.04L464.975 1289.78L1817.34 -770.945L1800.04 -780.596Z" fill="white" fill-opacity="0.5"/>
<path d="M1945.11 -886.04L592.736 1174.6L610.102 1184.27L1962.49 -876.45L1945.11 -886.04Z" fill="white" fill-opacity="0.5"/>
<path d="M2090.25 -991.525L737.884 1069.12L755.249 1078.79L2107.58 -981.874L2090.25 -991.525Z" fill="white" fill-opacity="0.5"/>
<path d="M2235.4 -1097.01L883.031 963.632L900.336 973.345L2252.73 -1087.38L2235.4 -1097.01Z" fill="white" fill-opacity="0.5"/>
<path d="M2380.55 -1202.52L1028.18 858.126L1045.48 867.859L2397.85 -1192.86L2380.55 -1202.52Z" fill="white" fill-opacity="0.5"/>
</g>
</g>
<defs>
<linearGradient id="paint0_linear_222_96" x1="529.855" y1="1236.89" x2="555.31" y2="295.404" gradientUnits="userSpaceOnUse">
<stop stop-color="#BEC4E4"/>
<stop offset="1" stop-color="#5D5DA9"/>
</linearGradient>
<linearGradient id="paint1_linear_222_96" x1="832.318" y1="-192.893" x2="539.602" y2="1098.42" gradientUnits="userSpaceOnUse">
<stop stop-color="#BEC4E4"/>
<stop offset="1" stop-color="#5D5DA9"/>
</linearGradient>
<linearGradient id="paint2_linear_222_96" x1="218.228" y1="-56.2247" x2="803.606" y2="1228.61" gradientUnits="userSpaceOnUse">
<stop stop-color="#BEC4E4"/>
<stop offset="1" stop-color="#5D5DA9"/>
</linearGradient>
</defs>
</svg>
