<svg width="217" height="285" viewBox="0 0 217 285" fill="none" xmlns="http://www.w3.org/2000/svg">
<g clip-path="url(#clip0_219_58)">
<path d="M115.111 0L217 110.016L161.919 269.521L60.0307 159.505L115.111 0Z" fill="url(#paint0_linear_219_58)"/>
<path d="M60.0307 159.505L161.919 269.521L5.88448 285L-96 174.984L60.0307 159.505Z" fill="url(#paint1_linear_219_58)"/>
<path d="M115.111 0L60.0307 159.505L-96 174.984L-40.9193 15.4786L115.111 0Z" fill="url(#paint2_linear_219_58)"/>
<g opacity="0.4">
<path d="M-96 174.984C-89.5214 174.124 -83.0262 173.385 -76.5434 172.583L-57.066 170.381C-44.0797 168.931 -31.0768 167.656 -18.0781 166.289C-5.06687 165.076 7.93187 163.776 20.9514 162.642L40.4828 160.976C46.9987 160.49 53.5106 159.937 60.0349 159.514C53.5563 160.378 47.061 161.113 40.5783 161.919L21.1009 164.121C8.11461 165.562 -4.8883 166.846 -17.8871 168.208C-30.8983 169.417 -43.897 170.722 -56.9165 171.856L-76.4479 173.522C-82.968 174.004 -89.4757 174.552 -96 174.984Z" fill="white"/>
</g>
<g opacity="0.4">
<path d="M115.111 0C113.064 6.5969 110.896 13.1522 108.795 19.7325L102.287 39.3986C97.9306 52.501 93.408 65.5494 88.9768 78.6269L75.2471 117.71L68.2328 137.201C65.8282 143.674 63.486 150.171 61.0233 156.626C63.0707 150.03 65.2343 143.474 67.3357 136.894L73.8434 117.228L87.1578 77.9996C91.7427 64.9719 96.2362 51.9152 100.892 38.9167L107.906 19.4251C110.311 12.9487 112.653 6.45565 115.111 0Z" fill="white"/>
</g>
<g opacity="0.4">
<path d="M62.1072 161.744C66.339 165.994 70.4837 170.331 74.6699 174.618L87.0872 187.629C95.3516 196.32 103.487 205.123 111.693 213.867C119.783 222.716 127.936 231.506 135.972 240.409L147.994 253.785C151.952 258.293 155.956 262.754 159.868 267.303C155.636 263.053 151.491 258.72 147.301 254.429L134.884 241.418C126.623 232.727 118.484 223.925 110.281 215.18C102.196 206.327 94.0351 197.541 86.0074 188.639L73.9846 175.262C70.0269 170.755 66.0193 166.293 62.1072 161.744Z" fill="white"/>
</g>
</g>
<defs>
<linearGradient id="paint0_linear_219_58" x1="83.8018" y1="-125.206" x2="149.384" y2="186.212" gradientUnits="userSpaceOnUse">
<stop stop-color="#5F5AA7"/>
<stop offset="0.2271" stop-color="#4A4486"/>
<stop offset="0.5782" stop-color="#2F2962"/>
<stop offset="0.8472" stop-color="#1E174E"/>
<stop offset="1" stop-color="#171047"/>
</linearGradient>
<linearGradient id="paint1_linear_219_58" x1="-238.929" y1="-1.72422" x2="121.649" y2="295.133" gradientUnits="userSpaceOnUse">
<stop stop-color="#5F5AA7"/>
<stop offset="1" stop-color="#171047"/>
</linearGradient>
<linearGradient id="paint2_linear_219_58" x1="-32.2745" y1="7.76572" x2="49.2119" y2="162.977" gradientUnits="userSpaceOnUse">
<stop stop-color="#5F5AA7"/>
<stop offset="1" stop-color="#171047"/>
</linearGradient>
<clipPath id="clip0_219_58">
<rect width="313" height="285" fill="white" transform="translate(-96)"/>
</clipPath>
</defs>
</svg>
